<svg aria-hidden="true" style="position: absolute; width: 0; height: 0; overflow: hidden;" version="1.1" xmlns="http://www.w3.org/2000/svg" xmlns:xlink="http://www.w3.org/1999/xlink">
<defs>
<symbol id="icon-facebook" viewBox="0 0 32 32">
<path d="M26.268 0h-20.693c-1.476 0.021-2.886 0.619-3.927 1.665s-1.633 2.459-1.647 3.935v20.96c0.048 1.45 0.654 2.826 1.693 3.84s2.428 1.587 3.88 1.6h11.145v-11.36h-3.185v-4.8h3.185v-3.040c-0.004-0.776 0.146-1.546 0.441-2.264s0.728-1.371 1.276-1.922c0.548-0.55 1.199-0.987 1.916-1.284s1.486-0.45 2.263-0.45h3.821v4.8h-3.821c-0.332 0.022-0.645 0.164-0.88 0.399s-0.377 0.548-0.4 0.881v3.040h4.139v4.8h-3.979v11.2h4.934c1.476-0.022 2.885-0.62 3.926-1.666s1.632-2.458 1.646-3.934v-20.8c-0.077-1.483-0.709-2.883-1.771-3.921s-2.476-1.637-3.961-1.679z"></path>
</symbol>
<symbol id="icon-icon" viewBox="0 0 32 32">
<path fill="#b92770" style="fill: var(--color1, #b92770)" d="M27.717 32c-0.133 0-0.257 0-0.385-0.017h-0.024c-4.741-0.52-9.296-2.137-13.304-4.723-3.719-2.367-6.876-5.518-9.251-9.232-2.601-4.017-4.223-8.588-4.735-13.345v-0.021c-0.053-0.592 0.018-1.188 0.208-1.75s0.495-1.080 0.896-1.518c0.401-0.438 0.888-0.789 1.432-1.028s1.131-0.364 1.725-0.364h4.456c1.030 0.004 2.025 0.377 2.803 1.052s1.288 1.607 1.437 2.626v0.012c0.174 1.313 0.496 2.603 0.96 3.844 0.286 0.766 0.347 1.597 0.176 2.396s-0.567 1.533-1.142 2.114l-1.136 1.133c1.774 2.806 4.153 5.179 6.963 6.947l1.139-1.136c0.583-0.575 1.318-0.971 2.118-1.141s1.633-0.108 2.399 0.18c1.243 0.463 2.535 0.784 3.851 0.957h0.012c1.037 0.145 1.984 0.666 2.663 1.462s1.042 1.815 1.021 2.862v4.4c0.001 0.563-0.108 1.121-0.323 1.641s-0.53 0.994-0.927 1.392c-0.398 0.399-0.87 0.715-1.39 0.931s-1.078 0.327-1.641 0.326zM27.584 29.333c0.223 0.019 0.448-0.009 0.659-0.081s0.406-0.188 0.571-0.34c0.165-0.152 0.296-0.336 0.386-0.541s0.136-0.427 0.135-0.651v-4.427c0-0.011 0-0.022 0-0.033 0.009-0.394-0.127-0.779-0.382-1.080s-0.612-0.498-1.002-0.554c-1.513-0.2-2.999-0.569-4.429-1.101-0.289-0.109-0.604-0.133-0.907-0.070s-0.581 0.213-0.801 0.43l-1.867 1.867c-0.206 0.206-0.475 0.339-0.764 0.378s-0.583-0.018-0.836-0.162c-3.899-2.213-7.129-5.438-9.349-9.333-0.144-0.254-0.201-0.547-0.162-0.836s0.172-0.557 0.378-0.764l1.867-1.867c0.215-0.219 0.363-0.495 0.427-0.795s0.040-0.612-0.067-0.9c-0.534-1.428-0.905-2.912-1.105-4.424-0.057-0.384-0.25-0.735-0.544-0.989s-0.669-0.394-1.058-0.395h-4.455c-0.223-0-0.444 0.046-0.648 0.136s-0.388 0.221-0.539 0.385c-0.151 0.164-0.267 0.358-0.339 0.569s-0.1 0.435-0.082 0.657c0.468 4.337 1.948 8.504 4.319 12.165v0.009c2.165 3.389 5.045 6.263 8.439 8.421h0.011c3.657 2.365 7.815 3.846 12.144 4.324z"></path>
</symbol>
<symbol id="icon-icon1" viewBox="0 0 43 32">
<path fill="#b92770" style="fill: var(--color1, #b92770)" d="M5.689 32.002c-1.456 0.048-2.872-0.482-3.938-1.475s-1.696-2.367-1.751-3.823v-21.406c0.056-1.455 0.686-2.829 1.752-3.822s2.481-1.522 3.937-1.474h31.289c1.456-0.048 2.871 0.482 3.937 1.474s1.696 2.366 1.752 3.822v21.406c-0.056 1.456-0.685 2.83-1.751 3.823s-2.482 1.523-3.938 1.475h-31.289zM3.556 26.704c0.049 0.523 0.298 1.006 0.696 1.349s0.913 0.518 1.437 0.489h31.289c0.524 0.029 1.039-0.146 1.437-0.489s0.647-0.826 0.696-1.349v-14.562l-16.7 12.384c-0.312 0.229-0.69 0.353-1.077 0.353s-0.765-0.124-1.077-0.353l-16.7-12.384v14.562zM21.333 20.98l17.778-13.188v-2.489c-0.049-0.522-0.299-1.006-0.697-1.348s-0.913-0.517-1.437-0.488h-31.289c-0.523-0.029-1.037 0.145-1.435 0.487s-0.648 0.823-0.698 1.345v2.489l17.778 13.193z"></path>
</symbol>
<symbol id="icon-map-pin" viewBox="0 0 27 32">
<path fill="#b92770" style="fill: var(--color1, #b92770)" d="M12.593 31.775c-2.252-1.571-4.339-3.366-6.228-5.359-1.686-1.739-3.141-3.689-4.328-5.801-1.28-2.217-1.981-4.722-2.037-7.281 0-3.536 1.405-6.928 3.905-9.428s5.892-3.905 9.428-3.905c3.536 0 6.928 1.405 9.428 3.905s3.905 5.892 3.905 9.428c-0.056 2.561-0.756 5.066-2.037 7.284-1.187 2.112-2.642 4.062-4.328 5.801-1.889 1.993-3.976 3.788-6.228 5.359-0.219 0.146-0.477 0.224-0.74 0.224s-0.521-0.078-0.74-0.224v-0.003zM2.667 13.333c0 7.219 8.133 13.819 10.667 15.695 2.533-1.875 10.667-8.475 10.667-15.695 0-2.829-1.124-5.542-3.124-7.542s-4.714-3.124-7.543-3.124c-2.829 0-5.542 1.124-7.542 3.124s-3.124 4.714-3.124 7.542zM8 13.333c0-1.055 0.313-2.086 0.899-2.963s1.419-1.561 2.394-1.964c0.975-0.404 2.047-0.509 3.082-0.303s1.985 0.714 2.731 1.46 1.254 1.696 1.46 2.731c0.206 1.035 0.1 2.107-0.303 3.081s-1.087 1.808-1.964 2.394-1.908 0.899-2.963 0.899c-1.414-0.003-2.769-0.565-3.768-1.565s-1.562-2.355-1.565-3.769zM10.667 13.333c0 0.527 0.156 1.043 0.449 1.481s0.71 0.78 1.197 0.982c0.487 0.202 1.023 0.255 1.541 0.152s0.992-0.357 1.365-0.73 0.627-0.848 0.73-1.365c0.103-0.517 0.050-1.053-0.152-1.541s-0.544-0.904-0.982-1.197-0.954-0.449-1.481-0.449c-0.707 0-1.386 0.281-1.886 0.781s-0.781 1.178-0.781 1.886z"></path>
</symbol>
<symbol id="icon-shopping-cart" viewBox="0 0 33 32">
<path d="M24.702 29.219c-0-0.55 0.161-1.089 0.463-1.547s0.732-0.815 1.234-1.026c0.503-0.211 1.056-0.266 1.59-0.159s1.024 0.372 1.409 0.761 0.647 0.885 0.753 1.425c0.106 0.54 0.052 1.1-0.156 1.608s-0.561 0.944-1.013 1.249c-0.452 0.306-0.984 0.469-1.529 0.469-0.729-0.002-1.427-0.295-1.943-0.816s-0.806-1.228-0.808-1.965zM9.578 29.219c0-0.55 0.161-1.088 0.463-1.545s0.731-0.814 1.234-1.024 1.055-0.266 1.588-0.158c0.533 0.107 1.023 0.372 1.408 0.761s0.646 0.884 0.752 1.424 0.052 1.099-0.156 1.607c-0.208 0.508-0.56 0.943-1.012 1.248s-0.984 0.469-1.527 0.469c-0.729-0-1.428-0.294-1.944-0.815s-0.804-1.229-0.805-1.966zM9.163 20.294l-2.299-11.614c0-0.037-0.016-0.077-0.021-0.116l-1.145-5.784h-4.374c-0.355-0.014-0.692-0.166-0.938-0.425s-0.385-0.605-0.385-0.965c0-0.36 0.138-0.706 0.385-0.965s0.583-0.411 0.938-0.425h5.5c0.32-0.002 0.63 0.108 0.878 0.312s0.418 0.489 0.481 0.806l1.155 5.837h22.249c0.203-0.001 0.404 0.043 0.588 0.13s0.347 0.214 0.477 0.371c0.13 0.158 0.224 0.343 0.275 0.542s0.058 0.407 0.020 0.608l-2.202 11.673c0.001 0.004 0.001 0.008 0 0.012-0.185 0.947-0.689 1.8-1.427 2.413s-1.663 0.947-2.617 0.946h-13.495c-0.954 0-1.878-0.334-2.616-0.946s-1.24-1.464-1.426-2.411zM11.861 19.75c0.062 0.321 0.234 0.609 0.486 0.814s0.566 0.315 0.889 0.309h13.447c0.318-0 0.625-0.111 0.871-0.315s0.414-0.487 0.476-0.802l1.887-10.017h-20.038l1.982 10.011z"></path>
</symbol>
<symbol id="icon-twitter" viewBox="0 0 40 32">
<path d="M40 3.84c-1.496 0.668-3.086 1.1-4.715 1.28 1.686-1.021 2.954-2.609 3.576-4.48-1.607 0.943-3.368 1.593-5.203 1.92-1.116-1.179-2.558-1.999-4.141-2.358s-3.237-0.239-4.753 0.344-2.824 1.602-3.759 2.929c-0.935 1.327-1.455 2.902-1.494 4.525-0.027 0.644 0.028 1.289 0.163 1.92-3.257-0.143-6.446-0.973-9.36-2.434s-5.486-3.521-7.549-6.045c-0.717 1.271-1.108 2.7-1.139 4.16-0.003 1.328 0.322 2.636 0.946 3.808s1.527 2.172 2.63 2.912c-1.255-0.128-2.472-0.509-3.576-1.12v0.16c0.020 1.897 0.694 3.729 1.909 5.187s2.895 2.451 4.758 2.813c-0.691 0.185-1.4 0.292-2.115 0.32-0.547 0.019-1.094-0.035-1.627-0.16 0.516 1.623 1.534 3.040 2.908 4.046s3.032 1.55 4.735 1.553c-2.908 2.315-6.525 3.558-10.243 3.52-0.655 0.026-1.31-0.027-1.952-0.16 3.768 2.318 8.109 3.537 12.533 3.52 3.056 0.047 6.092-0.513 8.929-1.65s5.421-2.826 7.6-4.969c2.179-2.144 3.909-4.699 5.091-7.518s1.792-5.844 1.793-8.901v-1.12c1.616-1.035 2.997-2.398 4.053-4z"></path>
</symbol>
<symbol id="icon-Union-6" viewBox="0 0 32 32">
<path fill="#b92770" style="fill: var(--color1, #b92770)" d="M4.687 27.314c-2.969-3.007-4.628-7.066-4.615-11.292s1.698-8.275 4.686-11.263 7.037-4.673 11.263-4.686c4.226-0.013 8.286 1.645 11.293 4.614 2.969 3.007 4.628 7.066 4.615 11.292s-1.698 8.275-4.686 11.263c-2.988 2.988-7.037 4.673-11.263 4.687s-8.286-1.645-11.293-4.615zM6.363 6.363c-1.281 1.262-2.3 2.765-2.997 4.423s-1.060 3.437-1.067 5.235c-0.007 1.799 0.343 3.58 1.028 5.243s1.693 3.174 2.964 4.445 2.782 2.279 4.445 2.964c1.663 0.685 3.445 1.034 5.243 1.028s3.578-0.369 5.235-1.067c1.658-0.697 3.161-1.716 4.423-2.997 1.281-1.262 2.3-2.765 2.998-4.423s1.060-3.437 1.067-5.235c0.007-1.799-0.343-3.58-1.028-5.243s-1.693-3.174-2.964-4.445-2.783-2.279-4.445-2.964c-1.663-0.685-3.445-1.034-5.243-1.028s-3.578 0.369-5.235 1.067-3.161 1.716-4.423 2.997zM20.952 19.924l-5.481-2.739c-0.198-0.099-0.364-0.251-0.48-0.44s-0.177-0.406-0.175-0.627v-8.217c0-0.314 0.125-0.616 0.347-0.838s0.524-0.347 0.838-0.347c0.314 0 0.616 0.125 0.838 0.347s0.347 0.524 0.347 0.838v7.489l4.827 2.414c0.143 0.067 0.271 0.163 0.376 0.28s0.186 0.255 0.238 0.404 0.073 0.307 0.062 0.465c-0.010 0.157-0.052 0.311-0.123 0.453s-0.169 0.267-0.289 0.37c-0.12 0.103-0.259 0.18-0.409 0.229s-0.309 0.066-0.466 0.052c-0.157-0.014-0.31-0.059-0.45-0.133z"></path>
</symbol>
<symbol id="icon-user" viewBox="0 0 29 32">
<path d="M25.858 30.401v-3.201c0-1.273-0.511-2.494-1.42-3.394s-2.143-1.406-3.429-1.406h-12.928c-1.286 0-2.519 0.506-3.428 1.406s-1.42 2.121-1.42 3.394v3.201c0 0.424-0.17 0.831-0.473 1.131s-0.714 0.469-1.143 0.469c-0.212 0-0.423-0.041-0.619-0.121s-0.374-0.198-0.525-0.347-0.27-0.325-0.351-0.519c-0.081-0.194-0.123-0.402-0.123-0.612v-3.201c0.003-2.121 0.855-4.155 2.37-5.655s3.569-2.343 5.712-2.345h12.928c2.142 0.002 4.197 0.845 5.712 2.345s2.367 3.533 2.37 5.655v3.201c0 0.21-0.042 0.418-0.123 0.612s-0.201 0.371-0.351 0.519-0.328 0.267-0.525 0.347c-0.196 0.080-0.407 0.121-0.619 0.121-0.428 0-0.84-0.169-1.142-0.469s-0.473-0.707-0.473-1.131zM6.464 8c0.003-2.121 0.855-4.155 2.371-5.655s3.57-2.343 5.713-2.345c2.142 0.003 4.196 0.847 5.711 2.347s2.367 3.533 2.369 5.655c-0.002 2.121-0.854 4.155-2.369 5.655s-3.569 2.343-5.711 2.345c-2.142-0.002-4.196-0.845-5.711-2.345s-2.367-3.534-2.369-5.655l-0.004-0.002zM9.695 8c0 1.273 0.511 2.494 1.42 3.394s2.143 1.406 3.428 1.406c1.286 0 2.519-0.506 3.429-1.406s1.42-2.121 1.42-3.394c0-1.273-0.511-2.494-1.42-3.394s-2.143-1.406-3.429-1.406c-1.286 0.001-2.518 0.508-3.427 1.408s-1.419 2.121-1.418 3.394l-0.004-0.002z"></path>
</symbol>
<symbol id="icon-logo" viewBox="0 0 32 32">
<path d="M0 0h32v32h-32v-32z"></path>
</symbol>
<symbol id="icon-instagram" viewBox="0 0 34 32">
<path d="M9.69 32c-2.357-0.002-4.617-0.94-6.283-2.606s-2.604-3.926-2.606-6.283v-14.221c0.003-2.357 0.94-4.616 2.607-6.283s3.926-2.604 6.283-2.607h14.221c2.357 0.003 4.616 0.94 6.283 2.607s2.604 3.926 2.607 6.283v14.223c-0.003 2.357-0.94 4.616-2.607 6.282s-3.926 2.603-6.283 2.605h-14.221zM7.91 16c-0 1.758 0.521 3.477 1.497 4.939s2.365 2.602 3.989 3.275c1.624 0.673 3.412 0.85 5.136 0.507s3.309-1.189 4.552-2.432c1.244-1.243 2.090-2.827 2.433-4.552s0.167-3.512-0.505-5.136-1.812-3.013-3.274-3.99c-1.462-0.977-3.181-1.498-4.939-1.498-2.356 0.003-4.616 0.94-6.282 2.606s-2.604 3.925-2.608 6.281zM25.69 5.333c0 0.351 0.105 0.695 0.3 0.986s0.473 0.519 0.798 0.654c0.325 0.134 0.682 0.169 1.026 0.101s0.661-0.238 0.909-0.486c0.248-0.248 0.418-0.565 0.486-0.909s0.034-0.702-0.101-1.026c-0.134-0.325-0.362-0.602-0.653-0.798s-0.635-0.3-0.987-0.3c-0.472 0-0.924 0.187-1.258 0.521s-0.521 0.786-0.521 1.258zM11.467 16c0-1.055 0.313-2.086 0.899-2.963s1.419-1.561 2.394-1.964c0.975-0.404 2.047-0.509 3.081-0.303s1.985 0.714 2.731 1.46c0.746 0.746 1.254 1.696 1.46 2.731s0.1 2.107-0.304 3.081c-0.404 0.975-1.087 1.808-1.964 2.394s-1.908 0.899-2.963 0.899c-1.415 0-2.771-0.562-3.771-1.562s-1.562-2.357-1.562-3.771z"></path>
</symbol>
</defs>
</svg>
